<?xml version="1.0" standalone="no"?>
<!DOCTYPE svg PUBLIC "-//W3C//DTD SVG 20010904//EN"
 "http://www.w3.org/TR/2001/REC-SVG-20010904/DTD/svg10.dtd">
<svg version="1.0" xmlns="http://www.w3.org/2000/svg"
 width="900.000000pt" height="383.000000pt" viewBox="0 0 900.000000 383.000000"
 preserveAspectRatio="xMidYMid meet">

<g transform="translate(0.000000,383.000000) scale(0.100000,-0.100000)"
fill="#000000" stroke="none">
<path d="M6480 3511 c0 -87 4 -141 10 -141 6 0 10 51 10 134 0 79 -4 137 -10
141 -6 4 -10 -43 -10 -134z"/>
<path d="M6057 3494 c-5 -6 30 -52 142 -184 16 -19 32 -32 35 -29 4 3 -30 51
-75 105 -100 122 -94 116 -102 108z"/>
<path d="M8265 3345 c4 -33 11 -64 17 -70 7 -7 8 8 3 45 -10 79 -28 101 -20
25z"/>
<path d="M6875 3371 c-22 -10 -89 -55 -149 -100 -59 -46 -123 -89 -141 -97
-48 -20 -122 -17 -174 6 -24 11 -45 19 -47 18 -5 -6 26 -83 44 -107 27 -38
107 -89 165 -106 66 -20 169 -19 207 0 29 15 30 15 30 -5 0 -35 27 -77 60 -90
28 -12 63 -10 130 5 24 6 26 3 62 -120 52 -173 92 -223 143 -175 26 24 45 124
45 239 0 71 -16 102 -60 116 -19 6 -19 8 -5 28 19 28 19 110 0 147 -15 28 -28
34 -66 31 -12 -1 -15 9 -15 46 0 67 -29 120 -83 154 -52 33 -90 36 -146 10z"/>
<path d="M8371 3335 c-24 -63 -24 -65 -13 -65 10 0 47 108 40 116 -4 3 -15
-20 -27 -51z"/>
<path d="M619 3336 c-65 -17 -104 -49 -133 -108 l-26 -52 0 -338 c0 -210 4
-338 10 -338 6 0 10 134 12 348 l3 348 28 42 c15 23 46 52 70 64 40 22 55 23
270 26 137 2 225 7 222 13 -9 14 -401 10 -456 -5z"/>
<path d="M2350 3340 c0 -6 38 -10 95 -10 57 0 95 4 95 10 0 6 -38 10 -95 10
-57 0 -95 -4 -95 -10z"/>
<path d="M2620 3340 c0 -7 215 -10 626 -10 414 0 623 3 619 10 -4 6 -223 10
-626 10 -406 0 -619 -3 -619 -10z"/>
<path d="M4340 3341 c0 -7 42 -11 133 -11 145 0 196 -10 245 -47 60 -45 72
-84 72 -243 0 -93 4 -140 11 -140 7 0 9 49 7 153 -3 148 -4 155 -30 195 -15
22 -49 54 -75 69 -46 27 -54 28 -205 32 -111 2 -158 0 -158 -8z"/>
<path d="M8140 3344 c0 -14 71 -106 78 -99 5 5 -14 35 -52 80 -14 17 -25 25
-26 19z"/>
<path d="M8450 3271 c-25 -22 -43 -42 -40 -45 6 -6 93 60 98 75 7 18 -14 7
-58 -30z"/>
<path d="M8233 3200 c-60 -36 -79 -109 -47 -176 16 -32 15 -38 0 -77 -17 -42
-17 -42 9 -64 14 -13 38 -23 51 -23 21 0 29 9 46 49 17 39 27 50 50 55 62 12
106 93 87 160 -5 19 -25 48 -45 65 -42 37 -101 42 -151 11z m102 -21 c-4 -5 1
-9 10 -9 10 0 13 5 9 12 -4 7 -3 8 4 4 6 -4 8 -14 5 -23 -5 -13 -2 -15 11 -10
9 4 15 3 11 -2 -3 -5 -1 -12 5 -16 6 -4 8 -10 5 -15 -3 -5 -1 -19 5 -30 6 -12
7 -20 1 -20 -5 0 -12 -13 -16 -29 -6 -29 -32 -48 -75 -53 -14 -2 -24 -9 -22
-16 1 -6 -3 -12 -9 -12 -6 0 -9 6 -6 14 3 8 0 17 -8 20 -10 3 -12 0 -8 -12 6
-14 5 -15 -9 -2 -9 8 -14 18 -11 23 2 4 0 7 -6 7 -16 0 -39 52 -35 80 3 14 5
31 6 38 1 6 5 12 9 12 4 0 10 9 14 19 4 13 12 18 22 14 9 -4 14 -2 10 3 -3 5
12 8 35 6 31 -3 39 -1 33 8 -5 9 -4 11 4 6 6 -4 9 -12 6 -17z"/>
<path d="M8272 3100 c1 -25 -2 -55 -7 -67 -11 -34 10 -28 25 6 8 20 21 32 41
36 39 9 38 29 -1 22 -16 -4 -30 -3 -30 1 0 5 -7 17 -15 28 -13 17 -14 15 -13
-26z"/>
<path d="M8487 3180 c-20 -4 -41 -10 -45 -15 -10 -11 111 5 123 16 11 10 -22
10 -78 -1z"/>
<path d="M5793 3137 c3 -10 81 -38 240 -87 15 -5 27 -5 27 0 0 4 -61 29 -136
54 -76 25 -134 40 -131 33z"/>
<path d="M2045 2946 c-16 -13 -61 -15 -251 -16 l-232 0 -4 -25 c-3 -14 0 -29
6 -35 7 -5 61 -11 122 -12 89 -2 109 -6 109 -18 0 -12 -22 -16 -115 -20 l-115
-5 -3 -27 c-2 -16 -2 -29 0 -29 2 -1 55 -4 118 -8 93 -5 115 -9 115 -21 0 -12
-21 -16 -112 -20 -61 -3 -115 -8 -118 -12 -12 -12 -15 -249 -4 -269 9 -17 23
-19 119 -19 106 0 136 -8 112 -32 -5 -5 -56 -11 -113 -13 -57 -1 -108 -3 -112
-4 -5 0 -7 -13 -5 -28 l3 -28 113 -3 c90 -2 114 -6 119 -18 3 -8 2 -18 -2 -22
-3 -4 -57 -9 -118 -12 l-112 -5 0 -30 0 -30 265 -3 c237 -2 266 -1 277 14 9
12 9 22 2 35 -8 17 -22 19 -112 19 -103 0 -131 8 -120 36 4 11 31 14 114 14
94 0 110 2 118 18 20 37 -2 47 -121 52 -92 4 -113 8 -113 20 0 12 19 16 92 20
85 5 95 7 120 33 26 26 28 33 31 130 1 56 -2 109 -7 117 -8 11 -38 16 -123 20
-92 4 -113 8 -113 20 0 12 21 16 113 20 119 5 141 15 121 52 -8 15 -26 18
-122 20 -92 2 -112 6 -112 18 0 12 19 16 92 20 80 5 95 8 118 30 46 44 10 94
-40 56z m-250 -331 c0 -18 -8 -20 -74 -23 -77 -3 -98 5 -87 33 5 13 19 15 83
13 70 -3 78 -5 78 -23z m240 0 c0 -18 -8 -20 -74 -23 -78 -3 -96 4 -85 32 5
14 18 16 83 14 68 -3 76 -5 76 -23z m-240 -115 c0 -12 -16 -16 -74 -18 -73 -3
-100 6 -86 28 4 7 34 10 83 8 61 -2 77 -6 77 -18z m242 5 c3 -9 4 -18 1 -20
-9 -9 -150 -7 -160 3 -21 21 4 32 78 32 58 0 76 -3 81 -15z"/>
<path d="M2854 2950 c-6 -6 -108 -11 -244 -12 l-235 -3 -3 -32 -3 -33 248 0
249 0 28 29 c17 18 26 36 23 45 -7 18 -48 21 -63 6z"/>
<path d="M3171 2943 c-13 -25 -13 -721 0 -745 14 -26 50 -19 65 11 7 14 29 30
50 37 66 23 74 42 74 187 0 82 -4 134 -12 146 -9 15 -9 25 0 46 8 16 12 81 12
174 0 172 7 161 -105 161 -61 0 -76 -3 -84 -17z m114 -183 c0 -108 -1 -115
-20 -115 -19 0 -20 8 -23 118 -3 118 -3 118 20 115 22 -3 23 -6 23 -118z m3
-314 c3 -110 -5 -140 -34 -129 -11 4 -14 30 -14 125 0 118 0 119 23 116 21 -3
22 -8 25 -112z"/>
<path d="M3422 2948 c-7 -7 -12 -37 -12 -68 0 -31 -5 -61 -11 -67 -13 -13 -8
-65 8 -70 6 -2 25 8 42 24 26 24 37 50 40 100 1 6 23 14 50 18 64 9 91 -5 91
-46 0 -22 10 -41 34 -65 50 -50 60 -45 52 24 -4 31 -8 75 -10 97 -1 23 -6 46
-10 53 -10 17 -257 17 -274 0z"/>
<path d="M2372 2813 c-4 -10 -8 -48 -7 -85 2 -73 19 -111 61 -130 31 -14 31
-42 0 -56 -50 -22 -62 -66 -57 -198 1 -29 6 -44 17 -48 32 -12 44 13 44 95 0
46 4 79 10 79 16 0 13 -200 -2 -204 -7 -3 -25 -7 -39 -10 -51 -11 -41 -76 11
-76 42 0 74 17 93 50 15 24 17 62 17 267 0 173 3 242 12 251 8 8 67 12 201 12
l188 0 -3 33 -3 32 -232 3 -233 2 0 -80 c0 -103 -18 -105 -22 -2 -3 70 -5 77
-25 80 -13 2 -25 -4 -31 -15z"/>
<path d="M5925 2758 c-117 -33 -122 -35 -113 -44 8 -8 248 58 248 68 0 12 -16
9 -135 -24z"/>
<path d="M6841 2740 c-11 -34 -6 -60 14 -60 17 0 65 39 65 52 0 7 -10 2 -22
-9 -46 -41 -52 -40 -44 5 7 49 2 54 -13 12z"/>
<path d="M8146 2743 c-25 -49 -36 -105 -47 -235 -10 -125 -10 -127 -45 -163
-42 -45 -41 -71 3 -69 l31 2 -36 -67 c-21 -37 -100 -181 -177 -322 l-140 -255
-227 188 c-125 103 -230 188 -232 188 -3 0 -65 -89 -137 -197 -72 -109 -135
-202 -139 -206 -4 -5 -47 48 -96 117 l-89 125 -60 0 -60 0 -105 -120 c-58 -65
-107 -119 -110 -119 -3 0 -65 72 -139 161 -73 88 -134 159 -136 157 -6 -9
-520 -676 -580 -753 -38 -49 -122 -159 -188 -243 -65 -85 -116 -156 -114 -159
9 -9 671 -202 678 -197 4 2 10 18 14 34 l7 30 69 -37 c38 -20 81 -47 96 -59
24 -19 26 -25 18 -49 -12 -31 -408 -409 -413 -394 -6 16 42 82 114 159 101
107 58 83 -66 -36 -72 -69 -110 -100 -110 -89 0 31 39 83 118 155 41 38 70 70
63 70 -7 0 -54 -42 -105 -93 -74 -73 -92 -97 -90 -117 1 -14 3 -28 3 -32 2
-19 31 -5 56 28 29 38 48 40 21 2 -18 -26 -21 -68 -5 -68 6 0 62 47 124 105
l112 105 17 -98 c10 -53 22 -118 28 -144 l10 -48 728 0 c685 0 729 1 734 18 2
9 12 62 22 118 l17 100 -36 150 c-20 82 -57 250 -82 374 -25 124 -67 331 -94
460 -27 129 -47 236 -46 238 1 2 119 -47 261 -107 142 -61 262 -107 266 -103
3 4 88 225 187 492 127 340 177 486 169 491 -7 4 -34 11 -60 14 -65 9 -64 27
2 76 45 33 78 42 76 21 -2 -31 31 -23 78 19 48 43 106 130 106 162 0 19 -30
23 -46 7 -7 -7 -9 -1 -6 20 7 46 -19 38 -72 -22 -50 -58 -53 -58 -31 -5 41 97
-20 87 -76 -13 l-20 -35 6 75 c3 41 8 108 12 148 6 78 -5 95 -31 45z m15 -95
c-7 -51 -15 -126 -19 -167 -5 -50 -12 -76 -21 -79 -29 -10 2 285 36 341 13 22
15 -11 4 -95z m99 -73 c0 -2 -9 -29 -21 -59 -18 -49 -64 -104 -76 -92 -7 6 32
91 57 126 19 26 40 40 40 25z m65 -73 c-14 -26 -44 -68 -66 -92 -22 -25 -33
-33 -24 -18 17 27 12 74 -6 63 -5 -3 -6 1 -2 10 4 11 8 13 12 6 4 -7 27 12 56
46 55 64 69 57 30 -15z m75 23 c0 -24 -57 -109 -100 -149 -52 -48 -71 -55 -51
-18 34 64 151 193 151 167z m-160 -104 c0 -15 -85 -85 -140 -115 -66 -36 -85
-23 -40 27 45 51 180 117 180 88z m-2125 -1377 c-36 -219 -67 -399 -68 -400
-1 -1 -51 19 -112 45 -60 26 -157 64 -215 86 -58 21 -109 41 -113 45 -4 4 121
147 279 319 158 171 289 310 291 308 2 -3 -26 -184 -62 -403z"/>
<path d="M6542 2715 c-15 -32 -15 -72 -2 -80 20 -12 89 42 90 70 0 6 -12 -5
-26 -22 -25 -33 -64 -45 -64 -20 0 6 7 25 15 41 17 33 18 36 7 36 -5 0 -14
-11 -20 -25z"/>
<path d="M2553 2694 c-10 -26 30 -68 78 -82 24 -8 50 -15 57 -18 9 -3 12 -19
10 -51 l-3 -48 -64 -5 c-67 -5 -90 -21 -78 -54 5 -12 20 -16 61 -16 58 0 86
-7 86 -21 0 -21 -88 -129 -115 -141 -51 -22 -41 -78 14 -78 33 1 48 13 91 73
18 26 39 47 46 47 8 0 32 -25 55 -55 41 -54 68 -70 106 -63 12 2 19 14 21 34
3 26 -2 32 -30 44 -39 18 -114 120 -105 144 5 12 21 16 71 16 54 0 64 3 69 19
9 37 -10 51 -73 51 -66 0 -85 16 -76 65 7 39 15 45 59 45 73 0 88 8 85 44 l-3
31 -140 3 c-110 2 -141 6 -148 17 -11 20 -66 19 -74 -1z"/>
<path d="M3406 2697 c-11 -8 -17 -23 -14 -38 l3 -24 159 0 c155 0 159 1 167
22 16 45 -9 53 -160 53 -97 0 -142 -4 -155 -13z"/>
<path d="M6671 2539 c-35 -44 -62 -82 -60 -84 2 -1 35 7 72 18 38 12 66 25 62
29 -4 3 -25 0 -47 -8 -23 -8 -43 -12 -45 -10 -3 2 19 34 47 70 29 36 48 66 43
66 -4 0 -37 -36 -72 -81z"/>
<path d="M3408 2579 c-15 -9 -18 -26 -18 -120 0 -109 0 -111 29 -140 16 -16
36 -29 44 -29 21 0 27 35 11 66 -9 16 -14 59 -14 114 0 67 -4 92 -16 104 -8 9
-16 16 -17 16 -1 0 -10 -5 -19 -11z"/>
<path d="M3522 2578 c-8 -8 -12 -49 -12 -119 0 -101 2 -109 26 -138 36 -43 64
-42 64 3 0 19 -4 38 -10 41 -6 3 -10 48 -10 100 0 72 -4 97 -16 109 -19 19
-26 20 -42 4z"/>
<path d="M3672 2578 c-8 -8 -12 -47 -12 -109 0 -75 -3 -99 -16 -109 -20 -17
-14 -64 8 -68 23 -4 64 41 72 79 13 64 7 187 -10 203 -19 19 -26 20 -42 4z"/>
<path d="M7041 2475 c-2 -37 -48 -122 -86 -160 -104 -104 -268 -101 -390 6
-21 19 -36 27 -33 19 8 -25 84 -77 145 -100 102 -39 208 -14 289 67 43 43 87
133 81 165 -4 20 -4 20 -6 3z"/>
<path d="M3425 2250 c-33 -6 -44 -32 -25 -55 10 -12 43 -15 161 -15 127 0 149
2 157 16 13 23 3 54 -17 55 -47 4 -251 3 -276 -1z"/>
<path d="M1210 1930 c-8 -5 -15 -21 -15 -37 -1 -18 -9 -31 -23 -38 -28 -13
-29 -57 -2 -76 18 -13 20 -26 21 -174 1 -151 -1 -161 -20 -174 -27 -18 -28
-57 -1 -64 17 -4 20 -14 20 -62 0 -54 -18 -94 -35 -77 -4 4 -5 -6 -3 -23 4
-42 40 -46 79 -9 25 24 29 35 29 86 0 46 4 62 20 75 11 10 20 28 20 40 0 13
-9 32 -20 43 -18 18 -20 33 -20 169 0 144 1 149 25 175 14 15 25 29 25 31 0 2
-11 16 -25 31 -14 15 -25 39 -25 54 0 16 -7 30 -16 34 -19 7 -16 8 -34 -4z"/>
<path d="M1383 1933 c-9 -3 -13 -35 -13 -109 0 -92 -2 -106 -20 -121 -39 -33
-13 -93 28 -66 40 25 56 62 54 122 -1 32 2 71 8 85 9 26 12 27 77 24 l68 -3 5
-85 c5 -93 15 -119 54 -139 49 -27 78 16 36 54 -17 16 -20 31 -20 120 0 65 -4
105 -12 113 -12 12 -238 17 -265 5z"/>
<path d="M2022 1928 c-7 -7 -12 -44 -12 -95 0 -80 -1 -84 -25 -93 -19 -7 -25
-17 -25 -39 0 -16 5 -33 10 -36 6 -4 10 -97 10 -245 0 -232 1 -240 21 -250 15
-9 24 -8 35 1 11 9 14 54 14 244 0 195 2 235 15 245 12 10 15 38 15 134 0 119
-6 146 -35 146 -6 0 -16 -5 -23 -12z"/>
<path d="M2151 1926 c-8 -9 -11 -56 -9 -142 l3 -129 62 -5 c70 -6 85 -15 72
-47 -8 -21 -15 -23 -77 -23 -73 0 -97 -12 -90 -47 3 -15 15 -19 73 -21 38 -2
75 -8 82 -14 10 -8 13 -51 13 -164 0 -145 1 -154 21 -164 42 -23 49 -1 49 164
0 105 4 156 12 164 7 7 40 12 80 12 l68 0 0 29 c0 35 -13 41 -91 41 -55 0 -59
2 -65 26 -9 34 7 44 73 44 86 0 83 -5 83 141 0 117 -2 129 -19 139 -31 16
-326 13 -340 -4z m285 -134 c2 -75 2 -74 -131 -70 l-90 3 -5 63 c-3 37 -1 64
5 66 6 3 57 4 115 3 l105 -2 1 -63z"/>
<path d="M2812 1928 c-7 -7 -12 -24 -12 -39 0 -18 -6 -30 -19 -34 -30 -9 -33
-44 -5 -70 24 -22 24 -26 24 -184 0 -92 -4 -161 -9 -161 -5 0 -16 -7 -24 -15
-19 -18 -11 -52 14 -66 27 -14 28 -114 1 -122 -24 -6 -34 -41 -17 -63 11 -15
16 -16 44 -5 43 19 71 68 71 127 0 37 5 54 20 67 11 9 20 26 20 37 0 10 -9 24
-20 30 -19 10 -20 21 -20 180 0 144 2 170 15 170 8 0 18 12 21 27 5 20 2 30
-14 44 -12 9 -22 28 -22 41 0 28 -17 48 -40 48 -9 0 -21 -5 -28 -12z"/>
<path d="M2972 1928 c-8 -8 -12 -52 -12 -131 l0 -119 34 -34 34 -34 130 0
c136 0 158 7 150 47 -3 16 -17 18 -131 21 -124 3 -128 3 -139 27 -20 44 2 55
109 55 95 0 95 0 129 34 29 29 34 41 34 79 0 50 -18 72 -50 62 -16 -5 -20 -15
-20 -45 0 -50 -18 -60 -109 -60 -80 0 -101 13 -101 65 0 41 -32 59 -58 33z"/>
<path d="M3802 1920 c-15 -16 -34 -20 -126 -22 -100 -3 -109 -5 -116 -24 -15
-40 1 -47 104 -45 106 2 139 -8 134 -42 -3 -21 -9 -22 -115 -27 -61 -3 -115
-9 -119 -13 -5 -5 -8 -115 -6 -245 1 -130 2 -259 2 -285 0 -51 18 -70 49 -50
14 9 17 44 21 259 l5 249 200 0 200 0 0 -215 c0 -207 -1 -215 -20 -218 -51 -8
-64 -13 -70 -33 -15 -46 54 -66 116 -33 53 27 59 58 59 318 0 200 -2 237 -16
250 -12 13 -38 16 -119 16 -106 0 -123 7 -109 44 8 20 37 26 140 26 98 0 116
9 94 51 -10 17 -22 19 -120 19 -99 0 -110 2 -120 20 -14 25 -44 26 -68 0z"/>
<path d="M4790 1740 c0 -107 4 -170 10 -170 6 0 10 63 10 170 0 107 -4 170
-10 170 -6 0 -10 -63 -10 -170z"/>
<path d="M460 1800 c0 -22 5 -40 10 -40 6 0 10 18 10 40 0 22 -4 40 -10 40 -5
0 -10 -18 -10 -40z"/>
<path d="M8122 1778 c-11 -29 -48 -125 -81 -212 -56 -146 -78 -221 -51 -174
10 16 82 202 141 361 16 42 24 77 19 77 -4 0 -17 -24 -28 -52z"/>
<path d="M460 1435 c0 -157 4 -245 10 -245 6 0 10 88 10 245 0 157 -4 245 -10
245 -6 0 -10 -88 -10 -245z"/>
<path d="M3665 1620 c-8 -13 7 -39 38 -68 19 -18 34 -23 68 -20 38 3 44 6 47
27 4 26 -12 41 -44 41 -12 0 -27 7 -34 15 -14 17 -66 20 -75 5z"/>
<path d="M3937 1616 c-3 -8 -20 -16 -38 -18 -35 -3 -56 -26 -46 -52 7 -16 68
-23 101 -10 21 8 59 71 51 84 -9 15 -62 12 -68 -4z"/>
<path d="M1353 1574 c-15 -39 8 -49 133 -54 l119 -5 3 -29 c6 -47 -6 -73 -47
-105 -32 -26 -43 -30 -63 -22 -41 17 -78 60 -78 91 0 23 -5 31 -24 36 -36 9
-46 -2 -46 -52 0 -40 5 -49 45 -86 25 -23 45 -49 45 -58 0 -23 -29 -47 -70
-57 -39 -10 -50 -35 -26 -58 27 -28 85 -15 126 29 32 33 57 32 98 -3 39 -35
83 -47 112 -31 34 18 22 51 -24 67 -81 27 -85 50 -21 113 l46 45 -3 95 -3 95
-158 3 c-139 2 -158 1 -164 -14z"/>
<path d="M2972 1538 c-17 -17 -17 -349 0 -366 18 -18 241 -16 278 3 55 28 60
46 60 205 0 100 -4 150 -12 158 -8 8 -59 12 -163 12 -104 0 -155 -4 -163 -12z
m249 -68 c11 -6 19 -21 19 -35 0 -34 -27 -45 -107 -45 -79 0 -95 8 -95 45 0
15 6 31 13 36 19 12 146 11 170 -1z m9 -165 c21 -26 4 -63 -33 -70 -26 -5 -90
-3 -139 4 -15 2 -25 37 -17 59 8 20 14 22 92 22 63 0 88 -4 97 -15z"/>
<path d="M3657 1478 c-2 -7 -1 -23 4 -35 7 -20 15 -23 68 -23 51 0 61 -3 66
-20 10 -31 -2 -40 -58 -40 -56 0 -70 -6 -80 -32 -11 -30 15 -47 78 -50 l60 -3
3 -47 c3 -52 21 -73 52 -63 15 5 20 15 20 45 0 65 5 70 70 70 61 0 84 14 78
47 -2 13 -14 19 -38 21 -69 5 -98 13 -104 29 -11 28 13 43 69 43 58 0 81 16
70 50 -6 19 -14 20 -180 20 -129 0 -174 -3 -178 -12z"/>
<path d="M2157 1453 c-4 -3 -7 -52 -7 -109 0 -81 -3 -103 -15 -108 -18 -7 -20
-47 -3 -64 7 -7 24 -12 38 -12 45 0 50 14 50 156 0 111 -3 133 -16 138 -20 8
-39 8 -47 -1z"/>
<path d="M2422 1448 c-8 -8 -12 -52 -12 -140 0 -126 0 -129 24 -139 14 -7 36
-9 50 -5 20 5 26 13 26 35 0 16 -7 34 -15 41 -10 9 -15 39 -17 113 -3 93 -5
102 -23 105 -11 1 -26 -3 -33 -10z"/>
<path d="M4797 1453 c-11 -10 -8 -123 3 -123 6 0 10 28 10 65 0 65 -1 71 -13
58z"/>
<path d="M460 928 c1 -68 27 -126 76 -166 55 -46 88 -52 272 -52 l162 0 0 -57
c0 -32 5 -75 10 -95 21 -74 -123 -68 1658 -68 l1604 0 29 29 c27 28 29 34 29
110 l0 81 170 0 c186 0 220 7 273 58 45 42 67 94 67 157 0 30 -4 55 -10 55 -5
0 -10 -23 -10 -50 0 -28 -6 -65 -14 -83 -17 -39 -71 -92 -109 -106 -16 -6
-103 -11 -198 -11 l-169 0 0 51 c0 61 -11 84 -50 104 -25 13 -220 15 -1619 15
l-1591 0 -31 -28 c-29 -26 -32 -35 -33 -85 l-1 -57 -168 0 c-179 0 -217 8
-265 53 -38 36 -62 92 -62 147 0 27 -4 50 -10 50 -5 0 -10 -24 -10 -52z m2800
-108 c0 -5 9 -10 20 -10 26 0 25 -8 -2 -37 -18 -20 -19 -23 -5 -23 9 0 17 5
17 11 0 6 8 8 19 4 12 -3 21 0 25 10 3 9 0 15 -10 15 -8 0 -13 4 -10 9 3 4 18
7 33 6 15 -1 38 -3 51 -3 18 -2 22 -8 22 -32 0 -18 -6 -33 -15 -36 -14 -6 -13
-8 2 -20 17 -13 17 -13 1 -14 -30 0 -21 -30 10 -31 l27 -1 -25 -7 c-18 -5 -26
-15 -28 -36 -6 -49 -22 -54 -22 -7 0 38 -2 42 -25 40 -18 -2 -25 -8 -25 -24 0
-12 -7 -27 -15 -34 -13 -11 -15 -7 -15 24 0 44 -18 48 -22 4 -5 -47 -28 -48
-29 -1 l-1 38 -9 -32 c-5 -18 -19 -38 -31 -44 -19 -10 -20 -9 -12 7 5 11 10
59 11 107 1 68 6 93 19 108 18 20 44 26 44 9z m-1258 -32 l1 -33 4 33 c6 43
51 43 74 -1 10 -18 9 -19 -10 -14 -11 3 -21 1 -21 -4 0 -5 7 -9 15 -9 8 0 15
-4 15 -10 0 -5 -7 -10 -15 -10 -8 0 -15 -8 -14 -17 0 -11 3 -13 6 -5 2 6 11
12 19 12 15 0 12 -16 -14 -68 -17 -32 -16 -33 8 -53 l25 -21 -25 7 c-27 8
-145 7 -172 -1 -15 -4 -18 1 -18 30 0 35 -12 47 -25 26 -3 -5 -13 -10 -22 -10
-12 0 -9 7 11 26 14 15 26 33 26 41 0 7 7 16 15 19 23 9 18 26 -5 19 -24 -8
-27 10 -4 19 16 6 16 8 0 24 -9 10 -16 22 -16 25 0 4 32 7 70 7 l70 0 2 -32z
m342 7 c4 -14 10 -24 14 -24 18 3 55 -4 42 -7 -8 -3 -22 -22 -31 -44 l-17 -38
29 -12 c16 -7 29 -17 29 -22 0 -18 -31 -20 -55 -4 -24 16 -27 16 -52 -4 -38
-30 -51 -24 -19 9 27 28 27 31 12 52 -24 34 -19 46 8 20 l23 -22 7 23 c9 37 8
38 -41 38 -25 0 -43 3 -39 7 3 4 26 6 49 5 33 -2 38 0 25 8 -21 13 -24 40 -4
40 8 0 17 -11 20 -25z m376 -31 c0 -52 -21 -97 -34 -76 -12 20 -46 14 -46 -8
0 -17 7 -20 42 -20 23 0 38 -3 34 -7 -4 -5 -22 -8 -39 -8 -25 0 -33 -5 -35
-22 -3 -20 2 -22 50 -26 29 -2 -1 -4 -66 -5 -66 -1 -117 0 -114 3 2 3 25 5 51
6 38 2 47 6 47 21 0 17 -14 22 -52 19 -9 -1 -19 3 -23 9 -4 6 9 10 34 10 34 0
41 3 41 20 0 23 -38 28 -58 8 -9 -9 -12 3 -12 58 l0 69 90 0 90 0 0 -51z m350
48 c0 -4 -18 -18 -40 -32 l-39 -24 -3 -80 c-2 -52 -7 -81 -15 -84 -10 -3 -13
19 -13 85 l0 89 33 14 c32 14 32 14 -43 18 -120 5 -110 22 13 22 59 0 107 -3
107 -8z m-835 -22 c4 -6 -5 -10 -20 -10 -15 0 -24 4 -20 10 3 6 12 10 20 10 8
0 17 -4 20 -10z m-884 -57 c27 -16 49 -31 49 -36 0 -8 -89 -67 -102 -67 -4 0
-8 29 -8 65 0 36 3 65 6 65 3 0 28 -12 55 -27z m2599 -39 c0 -53 -3 -65 -14
-61 -26 10 -96 57 -96 65 0 7 89 61 103 62 4 0 7 -30 7 -66z m-1710 -23 c0
-27 6 -53 13 -59 7 -6 44 -13 82 -15 41 -2 23 -3 -42 -3 -104 0 -111 1 -98 16
18 20 20 96 3 103 -7 3 -1 6 15 6 26 1 27 -1 27 -48z"/>
<path d="M3227 784 c-8 -9 3 -34 16 -34 6 0 7 3 4 7 -4 3 -2 12 4 20 9 10 8
13 -3 13 -8 0 -17 -3 -21 -6z"/>
<path d="M3347 765 c-20 -18 -27 -32 -24 -48 l4 -22 2 23 c1 22 31 33 31 11 0
-6 7 -4 15 5 15 15 21 56 8 56 -5 0 -21 -12 -36 -25z"/>
<path d="M3270 730 c0 -5 5 -10 10 -10 6 0 10 5 10 10 0 6 -4 10 -10 10 -5 0
-10 -4 -10 -10z"/>
<path d="M3270 690 c0 -5 5 -10 10 -10 6 0 10 5 10 10 0 6 -4 10 -10 10 -5 0
-10 -4 -10 -10z"/>
<path d="M3330 685 c-11 -13 -8 -15 14 -15 16 0 26 5 26 15 0 8 -6 15 -14 15
-7 0 -19 -7 -26 -15z"/>
<path d="M1930 781 c0 -11 4 -21 9 -21 18 0 21 18 6 30 -13 10 -15 9 -15 -9z"/>
<path d="M1958 754 c-16 -16 -7 -33 20 -36 l27 -4 -25 -12 -25 -11 25 -7 25
-8 -25 -7 -25 -6 25 -11 c24 -10 24 -11 3 -11 -28 -1 -30 -17 -3 -24 27 -7 34
8 31 67 -3 60 -8 71 -26 56 -10 -8 -14 -7 -17 5 -1 9 -6 13 -10 9z"/>
<path d="M1915 730 c-3 -5 -1 -10 4 -10 6 0 11 5 11 10 0 6 -2 10 -4 10 -3 0
-8 -4 -11 -10z"/>
<path d="M1915 690 c3 -5 8 -10 11 -10 2 0 4 5 4 10 0 6 -5 10 -11 10 -5 0 -7
-4 -4 -10z"/>
<path d="M1910 630 c0 -5 5 -10 10 -10 6 0 10 5 10 10 0 6 -4 10 -10 10 -5 0
-10 -4 -10 -10z"/>
<path d="M2577 794 c-14 -15 -6 -34 14 -34 14 0 19 5 17 17 -3 18 -20 27 -31
17z"/>
<path d="M2647 794 c-14 -15 -6 -34 14 -34 14 0 19 5 17 17 -3 18 -20 27 -31
17z"/>
<path d="M2570 735 c0 -8 9 -15 20 -15 11 0 20 7 20 15 0 8 -9 15 -20 15 -11
0 -20 -7 -20 -15z"/>
<path d="M2640 735 c0 -8 9 -15 20 -15 11 0 20 7 20 15 0 8 -9 15 -20 15 -11
0 -20 -7 -20 -15z"/>
<path d="M5975 530 c-56 -22 -127 -88 -130 -119 -1 -11 -29 -49 -63 -85 -63
-65 -119 -163 -103 -179 5 -5 15 -6 21 -2 9 6 9 9 0 15 -38 24 109 194 243
282 43 28 75 53 73 56 -3 2 -38 -16 -77 -42 -40 -25 -77 -46 -83 -46 -24 0 82
91 124 107 44 16 74 34 55 32 -6 0 -33 -9 -60 -19z"/>
<path d="M6056 468 c-36 -62 -57 -116 -47 -122 5 -3 11 7 14 22 3 15 22 53 41
85 19 31 31 57 26 57 -5 0 -20 -19 -34 -42z"/>
</g>
</svg>
